<svg width="40" height="40" viewBox="0 0 40 40" fill="none" xmlns="http://www.w3.org/2000/svg">
<rect x="0.5" y="0.5" width="39" height="39" rx="9.5" stroke="#2D60E2"/>
<path d="M25.4799 14.55L22.6399 11.71C22.547 11.6163 22.4364 11.5419 22.3145 11.4911C22.1927 11.4403 22.062 11.4142 21.9299 11.4142C21.7979 11.4142 21.6672 11.4403 21.5454 11.4911C21.4235 11.5419 21.3129 11.6163 21.2199 11.71C21.0337 11.8974 20.9291 12.1508 20.9291 12.415C20.9291 12.6792 21.0337 12.9326 21.2199 13.12L23.3399 15.24L15.2399 23.34L13.1199 21.22C12.9326 21.0338 12.6791 20.9292 12.4149 20.9292C12.1508 20.9292 11.8973 21.0338 11.7099 21.22C11.6162 21.313 11.5418 21.4236 11.491 21.5454C11.4403 21.6673 11.4141 21.798 11.4141 21.93C11.4141 22.062 11.4403 22.1927 11.491 22.3146C11.5418 22.4364 11.6162 22.547 11.7099 22.64L14.5199 25.45L17.3299 28.26C17.4226 28.3545 17.533 28.4297 17.6549 28.4812C17.7768 28.5327 17.9076 28.5595 18.0399 28.56C18.2386 28.5612 18.433 28.5031 18.5986 28.3933C18.7641 28.2835 18.8931 28.1269 18.9693 27.9435C19.0455 27.76 19.0653 27.5581 19.0262 27.3633C18.9872 27.1686 18.891 26.9899 18.7499 26.85L16.6599 24.76L24.7599 16.66L26.8799 18.78C26.9732 18.8726 27.0837 18.9459 27.2053 18.9957C27.3269 19.0456 27.4571 19.071 27.5885 19.0706C27.7199 19.0701 27.8499 19.0438 27.9711 18.993C28.0923 18.9423 28.2024 18.8682 28.2949 18.775C28.3875 18.6818 28.4608 18.5712 28.5107 18.4496C28.5605 18.3281 28.586 18.1979 28.5855 18.0665C28.585 17.9351 28.5587 17.8051 28.508 17.6838C28.4573 17.5626 28.3832 17.4526 28.2899 17.36L25.4799 14.55ZM11.7099 25.46C11.5216 25.2717 11.2662 25.1659 10.9999 25.1659C10.7336 25.1659 10.4782 25.2717 10.2899 25.46C10.1016 25.6483 9.99585 25.9037 9.99585 26.17C9.99585 26.4363 10.1016 26.6917 10.2899 26.88L13.1199 29.71C13.2134 29.8027 13.3242 29.876 13.446 29.9258C13.5679 29.9755 13.6983 30.0008 13.8299 30C13.9615 30.0008 14.092 29.9755 14.2138 29.9258C14.3357 29.876 14.4465 29.8027 14.5399 29.71C14.6337 29.617 14.7081 29.5064 14.7588 29.3846C14.8096 29.2627 14.8357 29.132 14.8357 29C14.8357 28.868 14.8096 28.7373 14.7588 28.6154C14.7081 28.4936 14.6337 28.383 14.5399 28.29L11.7099 25.46ZM29.7099 13.12L26.8799 10.29C26.7867 10.1968 26.676 10.1228 26.5542 10.0723C26.4324 10.0219 26.3018 9.99591 26.1699 9.99591C26.0381 9.99591 25.9075 10.0219 25.7857 10.0723C25.6639 10.1228 25.5532 10.1968 25.4599 10.29C25.3667 10.3832 25.2927 10.4939 25.2423 10.6158C25.1918 10.7376 25.1658 10.8681 25.1658 11C25.1658 11.1319 25.1918 11.2624 25.2423 11.3843C25.2927 11.5061 25.3667 11.6168 25.4599 11.71L28.2899 14.54C28.3829 14.6337 28.4935 14.7081 28.6154 14.7589C28.7372 14.8097 28.8679 14.8358 28.9999 14.8358C29.132 14.8358 29.2627 14.8097 29.3845 14.7589C29.5064 14.7081 29.617 14.6337 29.7099 14.54C29.8037 14.447 29.8781 14.3364 29.9288 14.2146C29.9796 14.0927 30.0057 13.962 30.0057 13.83C30.0057 13.698 29.9796 13.5673 29.9288 13.4454C29.8781 13.3236 29.8037 13.213 29.7099 13.12Z" fill="#2D60E2"/>
</svg>
