<svg width="40" height="40" viewBox="0 0 40 40" fill="none" xmlns="http://www.w3.org/2000/svg">
<rect x="0.5" y="0.5" width="39" height="39" rx="9.5" stroke="#2D60E2"/>
<path d="M13.696 21.8228C13.5967 21.8579 13.5066 21.9138 13.4319 21.9865C13.3573 22.0593 13.2999 22.1472 13.264 22.244C13.2058 22.3858 13.1916 22.541 13.223 22.6906C13.2545 22.8401 13.3303 22.9774 13.441 23.0854C13.5518 23.1933 13.6925 23.2672 13.846 23.2979C13.9994 23.3286 14.1586 23.3147 14.304 23.2579C14.4009 23.2184 14.4902 23.1631 14.568 23.0942C14.6387 23.0183 14.6955 22.9313 14.736 22.8368C14.7808 22.7442 14.8027 22.6427 14.8 22.5404C14.7971 22.3339 14.7142 22.1361 14.568 21.9866C14.4555 21.8784 14.3126 21.8051 14.1575 21.776C14.0023 21.7468 13.8417 21.7631 13.696 21.8228ZM24.208 18.7031L23.12 15.5599C22.954 15.1023 22.6462 14.7063 22.2391 14.4268C21.832 14.1473 21.3459 13.9981 20.848 14H15.152C14.6541 13.9981 14.168 14.1473 13.7609 14.4268C13.3538 14.7063 13.046 15.1023 12.88 15.5599L11.792 18.7265C11.2803 18.8571 10.8271 19.1489 10.5031 19.5566C10.179 19.9642 10.0021 20.4648 10 20.9805V24.1003C10.0014 24.583 10.1559 25.0535 10.4424 25.4473C10.7288 25.8411 11.1332 26.1388 11.6 26.2997V27.2201C11.6 27.4269 11.6843 27.6253 11.8343 27.7716C11.9843 27.9178 12.1878 28 12.4 28C12.6122 28 12.8157 27.9178 12.9657 27.7716C13.1157 27.6253 13.2 27.4269 13.2 27.2201V26.4401H22.8V27.2201C22.8 27.4269 22.8843 27.6253 23.0343 27.7716C23.1843 27.9178 23.3878 28 23.6 28C23.8122 28 24.0157 27.9178 24.1657 27.7716C24.3157 27.6253 24.4 27.4269 24.4 27.2201V26.2997C24.8668 26.1388 25.2712 25.8411 25.5576 25.4473C25.8441 25.0535 25.9986 24.583 26 24.1003V20.9805C25.9979 20.4648 25.821 19.9642 25.4969 19.5566C25.1729 19.1489 24.7197 18.8571 24.208 18.7265V18.7031ZM14.392 16.0513C14.4457 15.8964 14.5479 15.7618 14.6843 15.6666C14.8207 15.5715 14.9843 15.5205 15.152 15.5209H20.848C21.0225 15.512 21.1951 15.5591 21.3395 15.6548C21.484 15.7506 21.5923 15.8898 21.648 16.0513L22.488 18.6407H13.512L14.392 16.0513ZM24.4 24.1003C24.4 24.3071 24.3157 24.5055 24.1657 24.6518C24.0157 24.7981 23.8122 24.8802 23.6 24.8802H12.4C12.1878 24.8802 11.9843 24.7981 11.8343 24.6518C11.6843 24.5055 11.6 24.3071 11.6 24.1003V20.9805C11.6 20.7737 11.6843 20.5753 11.8343 20.429C11.9843 20.2827 12.1878 20.2006 12.4 20.2006H23.6C23.8122 20.2006 24.0157 20.2827 24.1657 20.429C24.3157 20.5753 24.4 20.7737 24.4 20.9805V24.1003ZM21.696 21.8228C21.5967 21.8579 21.5066 21.9138 21.4319 21.9865C21.3573 22.0593 21.2999 22.1472 21.264 22.244C21.2058 22.3858 21.1916 22.541 21.223 22.6906C21.2545 22.8401 21.3303 22.9774 21.441 23.0854C21.5518 23.1933 21.6925 23.2672 21.846 23.2979C21.9994 23.3286 22.1586 23.3147 22.304 23.2579C22.4033 23.2229 22.4934 23.167 22.5681 23.0942C22.6427 23.0215 22.7001 22.9336 22.736 22.8368C22.7808 22.7442 22.8027 22.6427 22.8 22.5404C22.7971 22.3339 22.7142 22.1361 22.568 21.9866C22.4555 21.8784 22.3126 21.8051 22.1575 21.776C22.0023 21.7468 21.8417 21.7631 21.696 21.8228ZM18.8 21.7605H17.2C16.9878 21.7605 16.7843 21.8426 16.6343 21.9889C16.4843 22.1352 16.4 22.3335 16.4 22.5404C16.4 22.7473 16.4843 22.9456 16.6343 23.0919C16.7843 23.2382 16.9878 23.3203 17.2 23.3203H18.8C19.0122 23.3203 19.2157 23.2382 19.3657 23.0919C19.5157 22.9456 19.6 22.7473 19.6 22.5404C19.6 22.3335 19.5157 22.1352 19.3657 21.9889C19.2157 21.8426 19.0122 21.7605 18.8 21.7605Z" fill="#2D60E2"/>
<path d="M28.125 13.875H29.375C29.5408 13.875 29.6997 13.9408 29.8169 14.0581C29.9342 14.1753 30 14.3342 30 14.5C30 14.6658 29.9342 14.8247 29.8169 14.9419C29.6997 15.0592 29.5408 15.125 29.375 15.125H28.125V16.375C28.125 16.5408 28.0592 16.6997 27.9419 16.8169C27.8247 16.9342 27.6658 17 27.5 17C27.3342 17 27.1753 16.9342 27.0581 16.8169C26.9408 16.6997 26.875 16.5408 26.875 16.375V15.125H25.625C25.4592 15.125 25.3003 15.0592 25.1831 14.9419C25.0658 14.8247 25 14.6658 25 14.5C25 14.3342 25.0658 14.1753 25.1831 14.0581C25.3003 13.9408 25.4592 13.875 25.625 13.875H26.875V12.625C26.875 12.4592 26.9408 12.3003 27.0581 12.1831C27.1753 12.0658 27.3342 12 27.5 12C27.6658 12 27.8247 12.0658 27.9419 12.1831C28.0592 12.3003 28.125 12.4592 28.125 12.625V13.875Z" fill="#2D60E2"/>
</svg>
