<svg width="32" height="32" viewBox="0 0 32 32" fill="none" xmlns="http://www.w3.org/2000/svg">
<path d="M19.3177 0.471699C17.0761 -0.0874562 14.7173 -0.167356 12.4221 0.328137C12.2447 0.366429 12.1319 0.541267 12.1702 0.718647C12.2085 0.896027 12.3833 1.00878 12.5607 0.970487C14.7588 0.495967 17.0231 0.574208 19.1768 1.11401C24.3273 2.40491 28.6145 6.27739 30.2474 11.3359C30.8788 13.2922 31.1471 15.3752 31.2008 17.5583C31.2053 17.7397 31.356 17.8832 31.5374 17.8787C31.7188 17.8743 31.8622 17.7236 31.8578 17.5422C31.8033 15.3291 31.5319 13.1925 30.8848 11.1716C29.1891 5.87574 24.7083 1.81633 19.3177 0.471699Z" fill="#2D60E2"/>
<path d="M10.7546 1.46582C10.9295 1.41756 11.0322 1.23663 10.984 1.06169C10.9357 0.886762 10.7548 0.784073 10.5799 0.832332C8.17951 1.49452 4.80295 3.78259 2.71619 6.83929C2.71538 6.84048 2.71458 6.84168 2.71378 6.84288C0.881474 9.60417 -0.267122 13.0742 0.0535629 16.4414C0.0538682 16.4446 0.0542207 16.4478 0.0546201 16.451C0.131475 17.0659 0.260496 17.6796 0.389669 18.294C0.661732 19.588 0.934465 20.8853 0.721884 22.2032C0.692986 22.3823 0.81479 22.551 0.99394 22.5799C1.17309 22.6088 1.34175 22.487 1.37065 22.3078C1.59286 20.9302 1.31694 19.5865 1.04096 18.2425C0.913327 17.621 0.785683 16.9994 0.707294 16.3743C0.405683 13.1926 1.49207 9.87329 3.26015 7.20802C5.26752 4.26865 8.51808 2.08281 10.7546 1.46582Z" fill="#2D60E2"/>
<path d="M15.0664 2.19992C19.1916 1.94802 23.316 3.63157 26.0859 6.85697C26.2041 6.99464 26.1883 7.20209 26.0507 7.32031C25.913 7.43854 25.7055 7.42277 25.5873 7.28511C22.9533 4.21788 19.0285 2.61572 15.1044 2.85597C15.103 2.85606 15.1016 2.85614 15.1002 2.8562C10.1377 3.09633 5.49022 6.46285 3.78079 11.1802C3.71897 11.3508 3.53054 11.439 3.35993 11.3771C3.18932 11.3153 3.10114 11.1269 3.16296 10.9563C4.96378 5.98676 9.84389 2.45351 15.0664 2.19992Z" fill="#2D60E2"/>
<path d="M27.0869 8.29242C26.9857 8.14178 26.7816 8.10167 26.6309 8.20284C26.4803 8.30401 26.4402 8.50815 26.5413 8.6588C28.0769 10.9452 28.7118 13.4333 28.9628 16.3859C28.9781 16.5667 29.1372 16.7008 29.318 16.6854C29.4988 16.67 29.6329 16.511 29.6175 16.3302C29.3611 13.3131 28.7063 10.7038 27.0869 8.29242Z" fill="#2D60E2"/>
<path d="M29.3979 17.7252C29.579 17.7139 29.735 17.8515 29.7463 18.0326C29.8701 20.0139 29.8713 22.2556 29.6521 23.9121C29.6283 24.092 29.4632 24.2186 29.2833 24.1948C29.1034 24.171 28.9768 24.0059 29.0006 23.826C29.2119 22.2293 29.213 20.0352 29.0904 18.0736C29.0791 17.8925 29.2168 17.7365 29.3979 17.7252Z" fill="#2D60E2"/>
<path d="M3.28461 12.7716C3.3272 12.5952 3.21873 12.4177 3.04233 12.3751C2.86594 12.3325 2.68841 12.441 2.64582 12.6174C2.40465 13.6162 2.27946 14.6423 2.2745 15.6694C2.26939 16.728 2.46677 17.7613 2.66423 18.795C2.82575 19.6405 2.98733 20.4864 3.03816 21.3466C3.10492 22.4765 2.86725 23.6081 2.45655 24.6851C2.39189 24.8547 2.47692 25.0446 2.64648 25.1092C2.81604 25.1739 3.00591 25.0888 3.07056 24.9193C3.50468 23.7809 3.76783 22.5546 3.69416 21.3078C3.64368 20.4535 3.48212 19.6126 3.32062 18.772C3.12355 17.7462 2.92658 16.721 2.93164 15.6726C2.93635 14.6966 3.05533 13.7212 3.28461 12.7716Z" fill="#2D60E2"/>
<path d="M11.9063 5.47001C11.9739 5.63841 11.8922 5.82974 11.7238 5.89737C8.31742 7.26533 5.75942 10.3523 5.23758 13.9926C5.01956 15.5134 5.2551 17.0199 5.49058 18.526C5.62319 19.3741 5.75578 20.2222 5.80733 21.0726C5.91911 22.9165 5.70908 24.942 4.50902 26.7848C4.40999 26.9369 4.20644 26.9799 4.05438 26.8808C3.90231 26.7818 3.85931 26.5783 3.95834 26.4262C5.05171 24.7472 5.25868 22.8822 5.15139 21.1123C5.09908 20.2495 4.96732 19.3916 4.83564 18.5343C4.59938 16.9962 4.36339 15.4597 4.58708 13.8993C5.14426 10.0125 7.86857 6.73742 11.4789 5.28755C11.6473 5.21993 11.8387 5.30162 11.9063 5.47001Z" fill="#2D60E2"/>
<path d="M23.4412 7.34069C20.7538 4.8237 16.8589 3.94523 13.3191 4.72165C13.1418 4.76053 13.0296 4.93573 13.0685 5.11299C13.1074 5.29024 13.2826 5.40241 13.4599 5.36354C16.8118 4.62832 20.4794 5.46701 22.9919 7.82031C25.1097 9.80384 26.3395 12.69 26.6614 15.8389C26.6798 16.0195 26.8411 16.1508 27.0217 16.1324C27.2022 16.1139 27.3336 15.9526 27.3151 15.7721C26.9808 12.5024 25.6992 9.45557 23.4412 7.34069Z" fill="#2D60E2"/>
<path d="M27.2464 17.3369C27.4269 17.3184 27.5882 17.4497 27.6068 17.6302C27.9188 20.6685 27.7843 23.9502 27.3133 27.1248C27.2866 27.3043 27.1195 27.4282 26.94 27.4016C26.7605 27.375 26.6366 27.2079 26.6632 27.0284C27.1278 23.8978 27.2586 20.6719 26.9531 17.6973C26.9345 17.5168 27.0658 17.3555 27.2464 17.3369Z" fill="#2D60E2"/>
<path d="M15.791 6.67766C10.756 6.67766 6.66504 10.6946 6.66504 15.6609C6.66504 16.1914 6.71212 16.7112 6.80186 17.2167C6.83358 17.3954 7.00414 17.5145 7.18282 17.4828C7.36149 17.451 7.48061 17.2805 7.44889 17.1018C7.3658 16.6338 7.32219 16.1525 7.32219 15.6609C7.32219 11.0676 11.1088 7.3348 15.791 7.3348C17.9069 7.3348 19.8402 8.09744 21.324 9.35758C21.4623 9.47504 21.6697 9.45814 21.7872 9.31982C21.9046 9.1815 21.8877 8.97415 21.7494 8.85668C20.1504 7.49875 18.0675 6.67766 15.791 6.67766Z" fill="#2D60E2"/>
<path d="M22.4856 10.0818C22.6166 9.95616 22.8246 9.96052 22.9502 10.0915C24.4002 11.6036 24.8644 13.9802 25.1715 15.9747C25.5175 18.2213 25.5703 20.413 25.5703 21.4292C25.5703 21.6107 25.4232 21.7578 25.2417 21.7578C25.0602 21.7578 24.9131 21.6107 24.9131 21.4292C24.9131 20.4295 24.8608 18.2748 24.522 16.0747C24.2369 14.2231 23.8259 11.9541 22.4758 10.5463C22.3502 10.4154 22.3546 10.2074 22.4856 10.0818Z" fill="#2D60E2"/>
<path d="M25.4868 23.311C25.5013 23.1301 25.3663 22.9717 25.1854 22.9573C25.0045 22.9429 24.8462 23.0778 24.8318 23.2587C24.6704 25.2827 24.4596 27.3044 24.0317 29.172C23.9912 29.3489 24.1018 29.5251 24.2786 29.5656C24.4555 29.6061 24.6318 29.4956 24.6723 29.3187C25.1114 27.4019 25.3251 25.3403 25.4868 23.311Z" fill="#2D60E2"/>
<path d="M7.33074 18.426C7.50879 18.3909 7.68155 18.5069 7.71661 18.6849C8.41134 22.2129 7.9314 25.4177 6.09164 28.2251C5.99218 28.3769 5.78851 28.4193 5.63673 28.3198C5.48495 28.2203 5.44254 28.0167 5.54201 27.8649C7.27303 25.2235 7.73889 22.1993 7.07185 18.8119C7.03678 18.6338 7.1527 18.4611 7.33074 18.426Z" fill="#2D60E2"/>
<path d="M15.791 8.81552C12.5226 8.81552 9.31631 11.3455 8.98905 14.5252C8.84577 15.9172 9.04704 17.2884 9.24839 18.6602C9.4242 19.858 9.60008 21.0562 9.54668 22.2691C9.42447 25.0449 8.61001 27.3363 7.21056 29.2235C7.10247 29.3693 7.13301 29.5751 7.27877 29.6832C7.42454 29.7913 7.63033 29.7607 7.73841 29.615C9.2227 27.6133 10.0757 25.193 10.2032 22.298C10.2563 21.0906 10.0799 19.8962 9.90364 18.7025C9.70204 17.3376 9.50058 15.9737 9.64274 14.5925C9.93024 11.7992 12.8053 9.47267 15.791 9.47267C17.1836 9.47267 20.7866 10.2267 21.9326 13.9602C22.6509 16.2999 22.8468 19.4663 22.6728 22.5424C22.4989 25.6182 21.9578 28.56 21.2301 30.4464C21.1648 30.6157 21.2492 30.8059 21.4185 30.8712C21.5878 30.9365 21.778 30.8522 21.8433 30.6829C22.6045 28.7093 23.1528 25.693 23.3289 22.5795C23.5049 19.4665 23.3114 16.2124 22.5609 13.7674C21.2887 9.62303 17.3006 8.81552 15.791 8.81552Z" fill="#2D60E2"/>
<path d="M10.7345 28.2256C10.8865 28.3247 10.9294 28.5283 10.8302 28.6803C10.6265 28.9927 10.4472 29.3195 10.268 29.6464C10.0888 29.9733 9.90948 30.3002 9.70569 30.6126C9.60656 30.7646 9.40298 30.8075 9.25098 30.7083C9.09899 30.6092 9.05614 30.4056 9.15527 30.2536C9.35902 29.9412 9.53826 29.6144 9.71751 29.2875C9.89676 28.9607 10.076 28.6337 10.2798 28.3213C10.379 28.1693 10.5825 28.1264 10.7345 28.2256Z" fill="#2D60E2"/>
<path d="M13.548 12.2263C13.6988 12.1254 13.7393 11.9213 13.6384 11.7705C13.5375 11.6196 13.3335 11.5792 13.1826 11.68C11.8815 12.5503 11.0833 13.747 11.0833 15.5001C11.0833 16.544 11.2682 17.3973 11.4579 18.2724C11.7417 19.5821 11.9342 20.8888 11.8997 22.234C11.8576 23.8674 11.538 25.3601 10.9237 26.782C10.8517 26.9486 10.9284 27.142 11.095 27.2139C11.2616 27.2859 11.455 27.2092 11.5269 27.0426C12.1765 25.5392 12.5125 23.9633 12.5566 22.2509C12.5925 20.8531 12.3947 19.4946 12.1003 18.1335C11.9102 17.2545 11.7404 16.4697 11.7404 15.5001C11.7404 13.998 12.4012 12.9933 13.548 12.2263Z" fill="#2D60E2"/>
<path d="M14.8304 11.0718C16.1939 10.7938 17.6611 11.1373 18.7411 12.0114C20.6701 13.5728 20.9267 16.4201 21.1345 18.7275L21.1451 18.845C21.4138 21.8192 21.1063 24.7081 20.4868 27.6093C20.4489 27.7868 20.2743 27.8999 20.0969 27.862C19.9194 27.8241 19.8063 27.6496 19.8442 27.4721C20.4543 24.6144 20.7517 21.7943 20.4907 18.9041C20.482 18.8084 20.4734 18.7114 20.4647 18.6132L20.4646 18.6118C20.2799 16.5267 20.0487 13.9152 18.3276 12.5222C17.4043 11.7749 16.138 11.4759 14.9617 11.7157C14.7839 11.752 14.6104 11.6372 14.5741 11.4594C14.5379 11.2816 14.6526 11.1081 14.8304 11.0718Z" fill="#2D60E2"/>
<path d="M20.0224 29.2443C20.0672 29.0684 19.9609 28.8896 19.7851 28.8448C19.6092 28.8 19.4304 28.9063 19.3856 29.0821C19.1869 29.8624 18.8809 30.5666 18.4928 31.215C18.3996 31.3707 18.4503 31.5725 18.606 31.6657C18.7617 31.7589 18.9634 31.7082 19.0566 31.5525C19.4749 30.8538 19.8069 30.0908 20.0224 29.2443Z" fill="#2D60E2"/>
<path d="M18.4157 24.4761C18.5959 24.4974 18.7247 24.6608 18.7034 24.841C18.393 27.4633 17.6925 29.8021 16.5683 31.8306C16.4804 31.9894 16.2804 32.0467 16.1217 31.9588C15.9629 31.8708 15.9056 31.6708 15.9935 31.5121C17.0693 29.5708 17.7486 27.3169 18.0508 24.7638C18.0721 24.5835 18.2355 24.4547 18.4157 24.4761Z" fill="#2D60E2"/>
<path d="M18.348 15.3278C18.1202 14.1106 17.0755 13.1796 15.8073 13.1796C14.0899 13.1796 12.885 14.9106 13.3096 16.5211C14.0281 19.364 14.146 22.1039 13.6597 24.7427L13.6593 24.7447C13.2373 27.114 12.4268 29.2454 11.3212 31.0516C11.2265 31.2063 11.2751 31.4086 11.4299 31.5034C11.5847 31.5981 11.787 31.5494 11.8817 31.3946C13.0325 29.5146 13.8705 27.3054 14.3061 24.8609C14.8111 22.1202 14.686 19.2842 13.9463 16.3584L13.9454 16.355C13.627 15.1502 14.5147 13.8367 15.8073 13.8367C16.7401 13.8367 17.5277 14.5229 17.7016 15.4464C18.1799 18.2206 18.429 20.7931 18.2516 23.008C18.2371 23.1889 18.372 23.3473 18.5529 23.3618C18.7338 23.3762 18.8922 23.2413 18.9067 23.0605C19.0905 20.7647 18.831 18.1288 18.3488 15.3324C18.3485 15.3309 18.3482 15.3293 18.348 15.3278Z" fill="#2D60E2"/>
<path d="M14.8268 29.5586C14.9882 29.6415 15.0518 29.8396 14.9689 30.001L14.0983 31.6953C14.0153 31.8567 13.8172 31.9203 13.6558 31.8374C13.4944 31.7544 13.4308 31.5563 13.5138 31.3949L14.3844 29.7006C14.4674 29.5392 14.6654 29.4756 14.8268 29.5586Z" fill="#2D60E2"/>
<path d="M16.0517 15.6446C16.0102 15.468 15.8333 15.3584 15.6566 15.3999C15.48 15.4414 15.3704 15.6182 15.4119 15.7949C16.52 20.5116 16.3678 24.6533 15.0181 28.1815C14.9533 28.351 15.0381 28.5409 15.2076 28.6058C15.3771 28.6706 15.5671 28.5858 15.6319 28.4163C17.0392 24.7375 17.1822 20.4571 16.0517 15.6446Z" fill="#2D60E2"/>
</svg>
