<svg width="40" height="40" viewBox="0 0 40 40" fill="none" xmlns="http://www.w3.org/2000/svg">
<rect x="0.5" y="0.5" width="39" height="39" rx="9.5" stroke="#2D60E2"/>
<path d="M22.3333 18.8333H21.1667V17.6667C21.1667 17.3572 21.0437 17.0605 20.825 16.8417C20.6062 16.6229 20.3094 16.5 20 16.5C19.6906 16.5 19.3938 16.6229 19.175 16.8417C18.9562 17.0605 18.8333 17.3572 18.8333 17.6667V18.8333H17.6667C17.3572 18.8333 17.0605 18.9562 16.8417 19.175C16.6229 19.3938 16.5 19.6906 16.5 20C16.5 20.3094 16.6229 20.6062 16.8417 20.8249C17.0605 21.0437 17.3572 21.1667 17.6667 21.1667H18.8333V22.3333C18.8333 22.6427 18.9562 22.9395 19.175 23.1583C19.3938 23.3771 19.6906 23.5 20 23.5C20.3094 23.5 20.6062 23.3771 20.825 23.1583C21.0437 22.9395 21.1667 22.6427 21.1667 22.3333V21.1667H22.3333C22.6427 21.1667 22.9395 21.0437 23.1583 20.8249C23.3771 20.6062 23.5 20.3094 23.5 20C23.5 19.6906 23.3771 19.3938 23.1583 19.175C22.9395 18.9562 22.6427 18.8333 22.3333 18.8333ZM29.52 11.8333C28.276 10.6021 26.6329 9.85613 24.8872 9.72991C23.1415 9.60369 21.4082 10.1056 20 11.145C18.5156 10.0409 16.668 9.54025 14.8292 9.74386C12.9905 9.94748 11.2972 10.8402 10.0903 12.2423C8.88342 13.6444 8.25262 15.4518 8.32493 17.3003C8.39724 19.1489 9.16728 20.9014 10.48 22.205L17.48 29.2633C18.1362 29.9188 19.0258 30.2869 19.9533 30.2869C20.8808 30.2869 21.7704 29.9188 22.4267 29.2633L29.4267 22.205C30.1161 21.5314 30.6656 20.7282 31.0436 19.8416C31.4216 18.955 31.6207 18.0024 31.6294 17.0386C31.638 16.0747 31.4561 15.1187 31.0941 14.2254C30.7321 13.3321 30.1972 12.5192 29.52 11.8333ZM27.875 20.5367L20.875 27.5367C20.7665 27.646 20.6375 27.7328 20.4953 27.792C20.3532 27.8513 20.2007 27.8818 20.0467 27.8818C19.8926 27.8818 19.7402 27.8513 19.598 27.792C19.4558 27.7328 19.3268 27.646 19.2183 27.5367L12.2183 20.5367C11.3034 19.6014 10.791 18.345 10.791 17.0367C10.791 15.7283 11.3034 14.4719 12.2183 13.5367C13.1507 12.6161 14.4081 12.1 15.7183 12.1C17.0285 12.1 18.286 12.6161 19.2183 13.5367C19.3268 13.646 19.4558 13.7328 19.598 13.792C19.7402 13.8513 19.8926 13.8818 20.0467 13.8818C20.2007 13.8818 20.3532 13.8513 20.4953 13.792C20.6375 13.7328 20.7665 13.646 20.875 13.5367C21.8073 12.6161 23.0648 12.1 24.375 12.1C25.6852 12.1 26.9426 12.6161 27.875 13.5367C28.797 14.473 29.3137 15.7343 29.3137 17.0483C29.3137 18.3624 28.797 19.6237 27.875 20.56V20.5367Z" fill="#2D60E2"/>
</svg>
