<svg width="22" height="22" viewBox="0 0 22 22" fill="none" xmlns="http://www.w3.org/2000/svg">
<path d="M9.93994 5.08C10.2907 5.02624 10.6451 4.99949 10.9999 5C14.1799 5 17.1699 7.29 18.9099 11C18.6438 11.5646 18.3433 12.1123 18.0099 12.64C17.9041 12.8038 17.8485 12.995 17.8499 13.19C17.8522 13.4082 17.9257 13.6198 18.0594 13.7923C18.1931 13.9648 18.3795 14.0889 18.5903 14.1455C18.8011 14.2022 19.0246 14.1883 19.2267 14.1061C19.4289 14.0238 19.5986 13.8777 19.7099 13.69C20.1759 12.9579 20.5806 12.1887 20.9199 11.39C20.9736 11.2652 21.0013 11.1308 21.0013 10.995C21.0013 10.8592 20.9736 10.7248 20.9199 10.6C18.8999 5.91 15.0999 3 10.9999 3C10.5306 2.99764 10.062 3.0378 9.59994 3.12C9.46862 3.14233 9.34298 3.1903 9.2302 3.26118C9.11742 3.33206 9.0197 3.42446 8.94263 3.5331C8.86555 3.64175 8.81063 3.76451 8.78101 3.89438C8.75138 4.02425 8.74762 4.15868 8.76994 4.29C8.79227 4.42132 8.84024 4.54696 8.91112 4.65975C8.982 4.77253 9.0744 4.87024 9.18304 4.94732C9.29169 5.02439 9.41445 5.07931 9.54432 5.10894C9.67419 5.13857 9.80862 5.14233 9.93994 5.12V5.08ZM2.70994 1.29C2.6167 1.19676 2.50601 1.1228 2.38419 1.07234C2.26237 1.02188 2.1318 0.995911 1.99994 0.995911C1.86808 0.995911 1.73751 1.02188 1.61569 1.07234C1.49387 1.1228 1.38318 1.19676 1.28994 1.29C1.10164 1.47831 0.99585 1.7337 0.99585 2C0.99585 2.2663 1.10164 2.5217 1.28994 2.71L4.38994 5.8C2.97551 7.16153 1.8498 8.79399 1.07994 10.6C1.02488 10.7262 0.996456 10.8623 0.996456 11C0.996456 11.1377 1.02488 11.2738 1.07994 11.4C3.09994 16.09 6.89994 19 10.9999 19C12.797 18.9876 14.5517 18.4525 16.0499 17.46L19.2899 20.71C19.3829 20.8037 19.4935 20.8781 19.6154 20.9289C19.7372 20.9797 19.8679 21.0058 19.9999 21.0058C20.132 21.0058 20.2627 20.9797 20.3845 20.9289C20.5064 20.8781 20.617 20.8037 20.7099 20.71C20.8037 20.617 20.8781 20.5064 20.9288 20.3846C20.9796 20.2627 21.0057 20.132 21.0057 20C21.0057 19.868 20.9796 19.7373 20.9288 19.6154C20.8781 19.4936 20.8037 19.383 20.7099 19.29L2.70994 1.29ZM9.06994 10.48L11.5199 12.93C11.3509 12.9785 11.1758 13.002 10.9999 13C10.4695 13 9.9608 12.7893 9.58573 12.4142C9.21066 12.0391 8.99994 11.5304 8.99994 11C8.99789 10.8242 9.02147 10.649 9.06994 10.48ZM10.9999 17C7.81994 17 4.82994 14.71 3.09994 11C3.74603 9.57375 4.66301 8.28658 5.79994 7.21L7.56994 9C7.15419 9.7588 6.99568 10.6319 7.1182 11.4885C7.24072 12.345 7.63766 13.1387 8.24947 13.7505C8.86128 14.3623 9.65497 14.7592 10.5115 14.8817C11.368 15.0043 12.2411 14.8458 12.9999 14.43L14.5899 16C13.501 16.6409 12.2634 16.9856 10.9999 17Z" fill="#535353"/>
</svg>
