<svg width="256" height="80" viewBox="0 0 256 80" fill="none" xmlns="http://www.w3.org/2000/svg">
<defs>
<linearGradient id="paint0_linear_51_1782" x1="102.289" y1="66.3814" x2="100.992" y2="-0.0351998" gradientUnits="userSpaceOnUse">
<stop stop-color="#009BDF"/>
<stop offset="1" stop-color="#24407E"/>
</linearGradient>
<linearGradient id="paint1_linear_51_1782" x1="228.241" y1="66.3773" x2="227.108" y2="2.001" gradientUnits="userSpaceOnUse">
<stop stop-color="#009BDF"/>
<stop offset="1" stop-color="#24407E"/>
</linearGradient>
<linearGradient id="paint2_linear_51_1782" x1="163.672" y1="66.3814" x2="162.375" y2="-0.0332093" gradientUnits="userSpaceOnUse">
<stop stop-color="#009BDF"/>
<stop offset="1" stop-color="#24407E"/>
</linearGradient>
<clipPath id="clip0_51_1782">
<rect width="256" height="80" fill="white"/>
</clipPath>
</defs>
<g clip-path="url(#clip0_51_1782)">
<path fill-rule="evenodd" clip-rule="evenodd" d="M0.149719 2.30084H64.8149V8.50084C60.4004 7.18084 55.1474 6.54084 49.4207 8.11084C38.2252 11.1748 28.8459 14.4848 18.2673 8.37285V22.4628C28.8459 28.4368 38.2232 25.1288 49.4207 22.0628C55.1474 20.4968 60.4024 21.1348 64.8149 22.4508V26.1428C60.4004 24.8188 55.1474 24.1828 49.4207 25.7508C38.2252 28.8108 28.8459 32.1228 18.2673 26.0108V40.1048C28.8459 46.0729 38.2232 42.7648 49.4207 39.7048C55.1474 38.1388 60.4024 38.7728 64.8149 40.0928V66.1089H0.149719V2.30084Z" fill="#009BDF"/>
<path fill-rule="evenodd" clip-rule="evenodd" d="M0.149719 2.3H64.8149V8.5C60.4004 7.18 55.1474 6.54 49.4207 8.11C38.2252 11.174 28.8459 14.484 18.2673 8.372L18.2491 8.366C18.233 8.358 18.2592 8.366 18.2411 8.358C10.8332 5.264 5.13265 3.154 0.149719 2.488V2.296V2.3Z" fill="#24407E"/>
<path fill-rule="evenodd" clip-rule="evenodd" d="M18.2612 8.37201V11.732H18.2673V22.462C28.8459 28.436 38.2232 25.128 49.4207 22.062C55.1474 20.496 60.4024 21.134 64.8149 22.45V26.142C60.4004 24.818 55.1474 24.182 49.4207 25.75C38.2252 28.81 28.8459 32.122 18.2673 26.01V30.154H0.149719V2.48801C5.13265 3.15801 10.8332 5.26801 18.2411 8.36201C18.2592 8.36601 18.233 8.35801 18.2491 8.36601L18.2632 8.37201H18.2612Z" fill="#1B4D99"/>
<path fill-rule="evenodd" clip-rule="evenodd" d="M64.8149 43.782V59.01C63.2571 58.7392 61.6796 58.5947 60.0981 58.578C50.4366 58.578 40.7771 63.706 31.1156 63.706C22.2403 64.42 9.54109 56.764 0.149719 54.074V36.994C8.28528 38.876 20.8434 46.112 27.967 46.918C28.7149 47.014 29.5232 47.07 30.4142 47.082H30.5714L30.5996 47.086H30.9383L30.9665 47.082H31.4261L31.5027 47.078H31.6639L31.7446 47.074C34.9234 47.002 37.818 46.454 40.5776 45.762H40.5816L40.7167 45.728L40.7852 45.714L40.8497 45.698L40.9847 45.666L40.9968 45.662L41.1178 45.634L41.2024 45.61L41.2528 45.598L41.3859 45.566L41.4161 45.558L41.5209 45.534H41.525L41.654 45.498L41.7931 45.466L41.8334 45.454L41.9281 45.43L42.045 45.402L42.0612 45.398L42.1962 45.362L42.2567 45.346L42.3293 45.326L42.4663 45.294L42.6014 45.258L42.678 45.238L42.7364 45.222L42.8735 45.186L42.8896 45.182L43.0086 45.15L43.1013 45.128L43.2807 45.08L43.317 45.07L43.5528 45.006L43.6899 44.97L43.7443 44.956L43.8249 44.936L43.964 44.9L44.1011 44.86L44.1696 44.844L44.2361 44.824L44.3732 44.788L44.3813 44.784L44.5123 44.748L44.597 44.728L44.6453 44.712L44.7844 44.676L44.8127 44.668L44.9215 44.636L45.0283 44.608L45.0606 44.6L45.1977 44.56L45.242 44.548L45.3367 44.524L45.4577 44.488L45.4758 44.484L45.6129 44.444L45.6734 44.428L45.752 44.408L45.8931 44.368L46.0322 44.332L46.1088 44.31L46.1693 44.292L46.3083 44.252L46.3285 44.248L46.4494 44.214L46.5442 44.19L46.5885 44.178L46.7256 44.138L46.7619 44.126L46.8687 44.098L46.9816 44.066L47.0078 44.058L47.1489 44.022L47.2013 44.006L47.292 43.982L47.421 43.946L47.4291 43.942L47.5722 43.902L47.6407 43.882L47.7133 43.862L47.8524 43.826L47.8645 43.822L47.9955 43.786L48.0842 43.758L48.1366 43.746L48.2777 43.706L48.3039 43.698L48.4208 43.666L48.5277 43.64L48.564 43.626L48.7051 43.586L48.7494 43.574L48.8482 43.548L48.9732 43.514L48.9913 43.512L49.1324 43.472L49.1969 43.452L49.2735 43.432L49.4207 43.392L49.4287 43.386H49.4368L49.4489 43.384H49.4569L49.465 43.38L49.4791 43.376L49.4852 43.372H49.4932L49.5013 43.368H49.5154L49.5295 43.36H49.5436L49.5517 43.356H49.5597L49.5718 43.352L49.5799 43.348H49.588L49.6001 43.344H49.6081V43.34H49.6162L49.6242 43.336H49.6363L49.6444 43.332H49.6525L49.6646 43.328H49.6726L49.6807 43.324L49.6928 43.32H49.7008L49.717 43.316L49.7291 43.312L49.7452 43.308L49.7573 43.304H49.7674L49.7875 43.3L49.7936 43.296H49.8036L49.8157 43.292H49.8238L49.8319 43.288L49.852 43.284L49.8601 43.28H49.8722L49.8802 43.276H49.8883L49.8964 43.272L49.9085 43.268H49.9165L49.9246 43.264H49.9367L49.9447 43.26H49.9528L49.9649 43.256H49.973L49.981 43.252L50.0012 43.248L50.0093 43.244H50.0173C51.8194 42.848 53.6316 42.564 55.5122 42.494H55.5163C55.6715 42.486 55.8247 42.482 55.9839 42.482H55.996L56.0484 42.478H56.5161L56.5604 42.482H56.7721L56.8245 42.486H56.9797L57.02 42.49H57.1349L57.1752 42.494H57.2357L57.2881 42.498H57.3365L57.3909 42.502H57.4393L57.4796 42.506H57.5401L57.5925 42.51H57.6308L57.6429 42.514H57.6953L57.7437 42.518H57.78L57.7981 42.522H57.8465L57.8989 42.526L57.9311 42.53H57.9473L57.9956 42.534H58.0481L58.0803 42.538H58.0984L58.1509 42.542L58.1992 42.546H58.2315L58.2476 42.55L58.3 42.554L58.3504 42.558H58.3827L58.3988 42.562H58.4028L58.5318 42.57L58.548 42.574L58.6024 42.578L58.6508 42.582L58.8019 42.594L58.8302 42.598L58.9471 42.61L58.9753 42.614L59.0962 42.626H59.1265L59.195 42.634L59.2434 42.638L59.2716 42.642L59.3321 42.65L59.3522 42.654H59.3684L59.3885 42.658C59.7514 42.698 60.1223 42.748 60.4911 42.804L60.5597 42.812L60.6282 42.826L60.7028 42.836L60.723 42.84L60.8439 42.86L61.3317 42.944L61.4023 42.956L61.4748 42.972L61.5434 42.984L61.5736 42.988L61.6139 42.996L61.6824 43.012L61.7107 43.016L61.751 43.024L61.8195 43.036L61.8518 43.044L61.8881 43.052L61.9586 43.068L61.9909 43.072L62.0271 43.08L62.0937 43.096L62.1299 43.104L62.1622 43.108L62.2307 43.124L62.267 43.132L62.2993 43.14L62.3678 43.152L62.4041 43.16L62.4343 43.168L62.5029 43.184L62.5734 43.196L62.6419 43.212L62.6823 43.224L62.7064 43.228L62.775 43.244L62.8153 43.256L62.8395 43.26L62.91 43.276L62.9544 43.288L62.9745 43.292L63.0431 43.308L63.0894 43.32L63.1096 43.324L63.1781 43.34L63.2426 43.356L63.3112 43.376L63.4422 43.408L63.4946 43.42L63.5752 43.44L63.6276 43.456L63.6418 43.46L63.7063 43.474L63.7627 43.492L63.7748 43.496L63.8393 43.512L63.8937 43.526H63.9058L63.9703 43.546L64.0268 43.562H64.0348L64.0993 43.582L64.1578 43.6H64.1658L64.2304 43.62L64.2868 43.636L64.2949 43.64L64.4219 43.674H64.4259L64.4904 43.694L64.5509 43.71H64.5549L64.6154 43.73L64.7464 43.77L64.8109 43.786L64.8149 43.782Z" fill="#0079C0"/>
<path fill-rule="evenodd" clip-rule="evenodd" d="M18.2673 26.098V40.104C28.8459 46.072 38.2232 42.764 49.4207 39.704C55.1474 38.138 60.4024 38.772 64.8149 40.092V43.782C63.3984 43.3545 61.9536 43.0251 60.4911 42.796C60.0883 42.7354 59.6844 42.6821 59.2797 42.636H59.2716L59.2474 42.634C58.17 42.5143 57.0862 42.4595 56.0021 42.47C53.946 42.506 51.9726 42.804 50.0234 43.236C49.8218 43.284 49.6202 43.336 49.4207 43.39C46.3567 44.23 43.4339 45.084 40.5816 45.762C37.6144 46.506 34.49 47.082 31.0189 47.082C29.886 47.094 28.8822 47.034 27.967 46.918C19.6319 45.972 9.63785 39.186 0.149719 36.992V19.172C0.956019 19.364 1.81876 19.588 2.72181 19.852C7.65435 21.298 13.7338 23.952 18.1241 25.95L18.2652 26.01V26.098H18.2673Z" fill="#0061AB"/>
<path fill-rule="evenodd" clip-rule="evenodd" d="M0.149719 19.164V16.44C6.48925 19.34 13.8246 24.056 18.2673 26.01C10.8775 22.906 5.10644 20.32 0.149719 19.164ZM18.2995 26.03L18.2733 26.014L18.2995 26.026V26.03Z" fill="#25386E"/>
<path fill-rule="evenodd" clip-rule="evenodd" d="M0.149719 36.992V34.252C6.50537 37.152 13.6572 42.024 18.11 43.986C10.6941 40.87 5.12257 38.146 0.149719 36.992Z" fill="#084D8B"/>
<path fill-rule="evenodd" clip-rule="evenodd" d="M0.149719 2.30084H7.13429C11.0569 4.32884 15.04 6.70084 18.2673 8.37284C10.8332 5.26884 5.14474 3.16084 0.149719 2.48884V2.30084Z" fill="#332C6A"/>
<path fill-rule="evenodd" clip-rule="evenodd" d="M0.149719 54.074V51.81C5.93492 54.458 12.5244 58.462 17.0014 60.626C16.25 60.3366 15.5014 60.0399 14.7558 59.736C13.7802 59.33 12.8328 58.942 11.9177 58.568C7.77933 56.84 3.72767 55.1 0.149719 54.074Z" fill="#065F9D"/>
<mask id="mask0_51_1782" style="mask-type:alpha" maskUnits="userSpaceOnUse" x="79" y="2" width="51" height="65">
<path d="M115.913 2.31601H129.332V28.45H115.913V2.31601ZM79.1664 2.31601H92.5872V28.45H79.1684V2.31601H79.1664ZM79.1664 28.45H129.332V39.984H79.1704V28.45H79.1664ZM79.1664 39.984H92.5872V66.114H79.1684V39.982L79.1664 39.984ZM115.913 39.984H129.332V66.114H115.913V39.982V39.984Z" fill="white"/>
</mask>
<g mask="url(#mask0_51_1782)">
<path fill-rule="evenodd" clip-rule="evenodd" d="M73.8691 -0.13798H129.008V66.246H73.8691V-0.13798Z" fill="url(#paint0_linear_51_1782)"/>
</g>
<mask id="mask1_51_1782" style="mask-type:alpha" maskUnits="userSpaceOnUse" x="198" y="2" width="59" height="65">
<path d="M251.846 2.31601L229.459 30.982L256.079 66.116H239.396L220.787 39.542L211.897 49.572V66.112H198.481V2.31601H211.902V31.486L235.486 2.31601H251.846Z" fill="white"/>
</mask>
<g mask="url(#mask1_51_1782)">
<path fill-rule="evenodd" clip-rule="evenodd" d="M197.674 1.906H256.978V66.246H197.674V1.906Z" fill="url(#paint1_linear_51_1782)"/>
</g>
<mask id="mask2_51_1782" style="mask-type:alpha" maskUnits="userSpaceOnUse" x="136" y="0" width="55" height="67">
<path d="M181.746 50.936C178.166 53.2715 173.974 54.5129 169.69 54.506C166.846 54.5191 164.028 53.973 161.399 52.8992C158.769 51.8255 156.38 50.2453 154.37 48.25C150.256 44.21 148.004 38.936 148.004 33.218C148.004 27.5 150.252 22.128 154.372 18.082C156.382 16.0873 158.771 14.5077 161.4 13.4342C164.029 12.3608 166.847 11.8149 169.69 11.828C173.983 11.828 178.19 13.064 181.75 15.398L190.196 7.19201C184.318 2.70399 177.106 0.277883 169.69 0.294009C151.209 0.294009 136.254 15.1 136.254 33.22C136.254 51.3 151.272 66.04 169.69 66.04C177.174 66.04 184.276 63.634 190.192 59.23L181.746 50.938V50.936Z" fill="white"/>
</mask>
<g mask="url(#mask2_51_1782)">
<path fill-rule="evenodd" clip-rule="evenodd" d="M135.251 -0.135983H190.391V66.246H135.251V-0.135983Z" fill="url(#paint2_linear_51_1782)"/>
</g>
</g>
</svg>
