<svg width="40" height="40" viewBox="0 0 40 40" fill="none" xmlns="http://www.w3.org/2000/svg">
<rect x="0.5" y="0.5" width="39" height="39" rx="9.5" stroke="#2D60E2"/>
<path d="M28 16L22 10.74C21.45 10.2481 20.7379 9.97607 20 9.97607C19.262 9.97607 18.55 10.2481 18 10.74L12 16C11.6823 16.2841 11.4289 16.6326 11.2564 17.0223C11.084 17.4119 10.9966 17.8339 11 18.26V27C11 27.7957 11.316 28.5587 11.8787 29.1213C12.4413 29.6839 13.2043 30 14 30H26C26.7956 30 27.5587 29.6839 28.1213 29.1213C28.6839 28.5587 29 27.7957 29 27V18.25C29.0019 17.8256 28.9138 17.4055 28.7414 17.0177C28.5691 16.6298 28.3163 16.283 28 16ZM22 28H18V23C18 22.7348 18.1053 22.4804 18.2929 22.2929C18.4804 22.1054 18.7348 22 19 22H21C21.2652 22 21.5195 22.1054 21.7071 22.2929C21.8946 22.4804 22 22.7348 22 23V28ZM27 27C27 27.2652 26.8946 27.5196 26.7071 27.7071C26.5195 27.8946 26.2652 28 26 28H24V23C24 22.2044 23.6839 21.4413 23.1213 20.8787C22.5587 20.3161 21.7956 20 21 20H19C18.2043 20 17.4413 20.3161 16.8787 20.8787C16.316 21.4413 16 22.2044 16 23V28H14C13.7348 28 13.4804 27.8946 13.2929 27.7071C13.1053 27.5196 13 27.2652 13 27V18.25C13.0002 18.108 13.0306 17.9677 13.0892 17.8384C13.1478 17.7091 13.2333 17.5937 13.34 17.5L19.34 12.25C19.5225 12.0897 19.7571 12.0013 20 12.0013C20.2429 12.0013 20.4775 12.0897 20.66 12.25L26.66 17.5C26.7666 17.5937 26.8521 17.7091 26.9108 17.8384C26.9694 17.9677 26.9998 18.108 27 18.25V27Z" fill="#2D60E2"/>
</svg>
