<svg width="44" height="30" viewBox="0 0 44 30" fill="none" xmlns="http://www.w3.org/2000/svg">
<path d="M43.25 8.91732V7.17293H38.9802L37.2869 8.65915L34.7486 2.87126C34.0115 0.994301 32.5163 0 30.4162 0H22.3251H13.5838C11.4871 0 9.98853 0.994301 9.2653 2.83986L6.71314 8.65915L5.01982 7.17293H0.75V8.91732H4.36961L5.69437 10.0791L3.96975 11.5374C2.7806 12.5456 2.09562 14.0179 2.09562 15.5809V22.2096C2.09562 23.3888 2.73192 24.4214 3.67768 24.9831V27.8021C3.67768 29.0127 4.65821 30 5.86822 30H9.387C10.5935 30 11.5775 29.0162 11.5775 27.8021V25.4367H32.572V27.8021C32.572 29.0127 33.5525 30 34.7625 30H38.2813C39.4878 30 40.4718 29.0162 40.4718 27.8021V24.8959C41.3341 24.3168 41.9044 23.3295 41.9044 22.213V15.5844C41.9044 14.0214 41.2229 12.5491 40.0303 11.5409L38.3056 10.0826L39.6304 8.9208H43.25V8.91732ZM10.8717 3.50622C11.3446 2.30259 12.2069 1.7409 13.5838 1.7409H22.3251H30.4162C31.7966 1.7409 32.6554 2.30259 33.1422 3.53762L35.9099 9.85231L33.9176 11.6246H22.3251H10.0789L8.08658 9.85231L10.8717 3.50622ZM9.83901 27.8021C9.83901 28.0498 9.63734 28.2556 9.387 28.2556H5.86822C5.62135 28.2556 5.4162 28.0533 5.4162 27.8021V25.4367H9.83554V27.8021H9.83901ZM38.7298 27.8021C38.7298 28.0498 38.5282 28.2556 38.2778 28.2556H34.759C34.5122 28.2556 34.307 28.0533 34.307 27.8021V25.4367H38.6846C38.6985 25.4367 38.7124 25.4332 38.7264 25.4332V27.8021H38.7298ZM38.9072 12.8701C39.7034 13.5434 40.1624 14.5308 40.1624 15.5774V22.2061C40.1624 23.0224 39.4983 23.6888 38.6846 23.6888H5.31537C4.50174 23.6888 3.83762 23.0224 3.83762 22.2061V15.5774C3.83762 14.5308 4.29659 13.5434 5.09284 12.8701L7.0226 11.2408L7.53025 11.6874L9.42177 13.369H22.3251H34.5782L36.4698 11.6874L36.9774 11.2408L38.9072 12.8701Z" fill="#2D60E2"/>
<path d="M29.373 20.4547H14.6268V22.1991H29.373V20.4547Z" fill="#2D60E2"/>
<path d="M15.8022 18.5568C15.9343 18.2254 15.8509 17.8451 15.5901 17.6009L12.951 15.0994C12.6033 14.768 12.0505 14.7854 11.7236 15.1343C11.3933 15.4832 11.4107 16.0379 11.7584 16.3659L12.8085 17.3602H8.98372C7.17565 17.3602 6.53935 15.546 6.50805 15.4588C6.35854 15.0018 5.86828 14.754 5.41626 14.9006C4.96077 15.0506 4.71042 15.539 4.85645 15.9995C4.89818 16.1251 5.89262 19.1046 8.98372 19.1046H14.9955C15.3502 19.108 15.6701 18.8917 15.8022 18.5568Z" fill="#2D60E2"/>
<path d="M35.0198 17.3636H31.1951L32.2451 16.3693C32.5928 16.0379 32.6102 15.4867 32.2799 15.1378C31.9496 14.7889 31.4002 14.7715 31.0525 15.1029L28.4134 17.6044C28.1561 17.8486 28.0692 18.2289 28.2013 18.5603C28.3334 18.8917 28.6533 19.1115 29.008 19.1115H35.0198C38.1109 19.1115 39.1054 16.1321 39.1471 16.0065C39.2931 15.5495 39.0462 15.0645 38.5907 14.911C38.1387 14.761 37.645 15.0087 37.492 15.4623C37.4677 15.539 36.8348 17.3636 35.0198 17.3636Z" fill="#2D60E2"/>
</svg>
