<svg width="50" height="50" viewBox="0 0 50 50" fill="none" xmlns="http://www.w3.org/2000/svg">
<path d="M32.373 30.4547H17.6268V32.1991H32.373V30.4547Z" fill="#2D60E2"/>
<path d="M18.8022 28.5568C18.9343 28.2254 18.8509 27.8451 18.5901 27.6009L15.951 25.0994C15.6033 24.768 15.0505 24.7854 14.7236 25.1343C14.3933 25.4832 14.4107 26.0379 14.7584 26.3659L15.8085 27.3602H11.9837C10.1756 27.3602 9.53935 25.546 9.50805 25.4588C9.35854 25.0018 8.86828 24.754 8.41626 24.9006C7.96077 25.0506 7.71042 25.539 7.85645 25.9995C7.89818 26.1251 8.89262 29.1046 11.9837 29.1046H17.9955C18.3502 29.108 18.6701 28.8917 18.8022 28.5568Z" fill="#2D60E2"/>
<path d="M38.0198 27.3636H34.1951L35.2451 26.3693C35.5928 26.0379 35.6102 25.4867 35.2799 25.1378C34.9496 24.7889 34.4002 24.7715 34.0525 25.1029L31.4134 27.6044C31.1561 27.8486 31.0692 28.2289 31.2013 28.5603C31.3334 28.8917 31.6533 29.1115 32.008 29.1115H38.0198C41.1109 29.1115 42.1054 26.1321 42.1471 26.0065C42.2931 25.5495 42.0462 25.0645 41.5907 24.911C41.1387 24.761 40.645 25.0087 40.492 25.4623C40.4677 25.539 39.8348 27.3636 38.0198 27.3636Z" fill="#2D60E2"/>
<path fill-rule="evenodd" clip-rule="evenodd" d="M21.111 3.17971C22.2622 2.41054 23.6155 2 25 2C25.9193 2 26.8295 2.18106 27.6788 2.53284C28.5281 2.88463 29.2997 3.40024 29.9497 4.05025C30.5998 4.70026 31.1154 5.47194 31.4672 6.32121C31.8189 7.17049 32 8.08075 32 9C32 10.3845 31.5895 11.7378 30.8203 12.889C30.0511 14.0401 28.9579 14.9373 27.6788 15.4672C26.3997 15.997 24.9922 16.1356 23.6344 15.8655C22.2765 15.5954 21.0292 14.9287 20.0503 13.9497C19.0713 12.9708 18.4046 11.7235 18.1345 10.3656C17.8644 9.00776 18.003 7.6003 18.5328 6.32121C19.0627 5.04213 19.9599 3.94888 21.111 3.17971ZM21.8888 13.6562C22.8097 14.2716 23.8924 14.6 25 14.6C26.4852 14.6 27.9096 14.01 28.9598 12.9598C30.01 11.9096 30.6 10.4852 30.6 9C30.6 7.89242 30.2716 6.80972 29.6562 5.88881C29.0409 4.96789 28.1663 4.25012 27.143 3.82627C26.1198 3.40242 24.9938 3.29153 23.9075 3.5076C22.8212 3.72368 21.8234 4.25703 21.0402 5.0402C20.257 5.82338 19.7237 6.8212 19.5076 7.90749C19.2915 8.99379 19.4024 10.1198 19.8263 11.143C20.2501 12.1663 20.9679 13.0409 21.8888 13.6562ZM24.505 5.00502C24.6363 4.87375 24.8144 4.8 25 4.8C25.1857 4.8 25.3637 4.87375 25.495 5.00502C25.6263 5.1363 25.7 5.31435 25.7 5.5V9C25.7 9.18565 25.6263 9.3637 25.495 9.49497C25.3637 9.62625 25.1857 9.7 25 9.7H22.9C22.7143 9.7 22.5363 9.62625 22.405 9.49497C22.2738 9.3637 22.2 9.18565 22.2 9C22.2 8.81435 22.2738 8.6363 22.405 8.50502C22.5363 8.37375 22.7143 8.3 22.9 8.3H24.3V5.5C24.3 5.31435 24.3738 5.1363 24.505 5.00502ZM12.2653 12.8399C12.9265 11.1527 14.2357 10.1769 16.0574 10.0219C16.1244 10.6151 16.2491 11.1909 16.4258 11.7435C15.1405 11.7855 14.3262 12.3493 13.8717 13.5062L11.0866 19.8523L13.0789 21.6246H25.3251H36.9176L38.9099 19.8523L36.1422 13.5376C35.6743 12.3504 34.8625 11.7854 33.5742 11.7435C33.7509 11.1909 33.8756 10.6151 33.9426 10.0219C35.767 10.1769 37.0746 11.1551 37.7486 12.8713L40.2869 18.6592L41.9802 17.1729H46.25V18.9173V18.9208H42.6304L41.3056 20.0826L43.0303 21.5409C44.2229 22.5492 44.9044 24.0214 44.9044 25.5844V32.2131C44.9044 33.3295 44.3341 34.3168 43.4718 34.8959V37.8021C43.4718 39.0162 42.4878 40 41.2813 40H37.7625C36.5525 40 35.572 39.0127 35.572 37.8021V35.4367H14.5775V37.8021C14.5775 39.0162 13.5935 40 12.387 40H8.86822C7.65821 40 6.67768 39.0127 6.67768 37.8021V34.9832C5.73192 34.4215 5.09562 33.3888 5.09562 32.2096V25.5809C5.09562 24.0179 5.7806 22.5457 6.96975 21.5374L8.69437 20.0791L7.36961 18.9173H3.75V17.1729H8.01982L9.71314 18.6592L12.2653 12.8399ZM12.839 37.8021C12.839 38.0498 12.6373 38.2556 12.387 38.2556H8.86822C8.62135 38.2556 8.4162 38.0533 8.4162 37.8021V35.4367H12.8355V37.8021H12.839ZM41.7298 37.8021C41.7298 38.0498 41.5282 38.2556 41.2778 38.2556H37.759C37.5122 38.2556 37.307 38.0533 37.307 37.8021V35.4367H41.6846C41.6903 35.4367 41.6961 35.4361 41.7018 35.4354C41.7052 35.435 41.7085 35.4346 41.7119 35.4342C41.7167 35.4336 41.7215 35.4332 41.7264 35.4332V37.8021H41.7298ZM41.9072 22.8701C42.7034 23.5435 43.1624 24.5308 43.1624 25.5774V32.2061C43.1624 33.0225 42.4983 33.6888 41.6846 33.6888H8.31537C7.50174 33.6888 6.83762 33.0225 6.83762 32.2061V25.5774C6.83762 24.5308 7.29659 23.5435 8.09284 22.8701L10.0226 21.2409L10.5303 21.6874L12.4218 23.369H25.3251H37.5782L39.4698 21.6874L39.9774 21.2409L41.9072 22.8701Z" fill="#2D60E2"/>
</svg>
