<svg width="74" height="33" viewBox="0 0 74 33" fill="none" xmlns="http://www.w3.org/2000/svg">
<path fill-rule="evenodd" clip-rule="evenodd" d="M5.46549 1.07723L6.21002 0.71016C6.28852 0.671844 6.37707 0.659169 6.46317 0.673926C6.54927 0.688683 6.62855 0.730125 6.68981 0.792396L7.56873 1.68121C7.62919 1.74327 7.6688 1.82263 7.68205 1.90825C7.69531 1.99388 7.68154 2.0815 7.64266 2.15893L7.26728 2.8993L8.05246 3.16592C8.1348 3.19436 8.20616 3.2479 8.25649 3.319C8.30683 3.3901 8.33362 3.47519 8.33309 3.5623L8.32606 4.81739C8.32484 4.90278 8.29741 4.98573 8.24748 5.05501C8.19756 5.1243 8.12755 5.17657 8.04694 5.20475L7.25883 5.46256L7.6259 6.20709C7.66421 6.28559 7.67689 6.37414 7.66213 6.46024C7.64737 6.54634 7.60593 6.62562 7.54366 6.68688L6.65484 7.5658C6.59289 7.62738 6.51315 7.66793 6.42689 7.68173C6.34064 7.69552 6.25223 7.68185 6.17416 7.64266L5.43379 7.26728L5.16717 8.05246C5.13873 8.1348 5.0852 8.20615 5.0141 8.25649C4.943 8.30683 4.85791 8.33362 4.77079 8.33309L3.5157 8.32606C3.42945 8.32522 3.34559 8.29763 3.27568 8.24711C3.20577 8.19658 3.15327 8.12561 3.12542 8.04397L2.8676 7.25586L2.12308 7.62293C2.04458 7.66125 1.95602 7.67392 1.86992 7.65917C1.78383 7.64441 1.70455 7.60297 1.64329 7.5407L0.764363 6.65188C0.703901 6.58982 0.664288 6.51046 0.651038 6.42484C0.637787 6.33922 0.651557 6.25159 0.690432 6.17416L1.06581 5.43379L0.280636 5.16717C0.198295 5.13873 0.126938 5.0852 0.0766002 5.0141C0.0262627 4.943 -0.000523723 4.85791 7.75863e-06 4.77079L0.0070325 3.5157C0.00787253 3.42945 0.0354586 3.34559 0.0859845 3.27568C0.13651 3.20577 0.207486 3.15327 0.289118 3.12542L1.07723 2.8676L0.71016 2.12308C0.671844 2.04458 0.659169 1.95602 0.673926 1.86992C0.688683 1.78383 0.730125 1.70455 0.792396 1.64329L1.68121 0.764363C1.74327 0.703901 1.82263 0.664289 1.90825 0.651038C1.99388 0.637787 2.0815 0.651558 2.15893 0.690433L2.8993 1.06581L3.16592 0.280637C3.19436 0.198295 3.2479 0.126938 3.319 0.0766002C3.3901 0.0262627 3.47519 -0.000523723 3.5623 7.75863e-06L4.81739 0.00703278C4.90364 0.00787281 4.98751 0.0354585 5.05741 0.0859845C5.12732 0.13651 5.17982 0.207486 5.20768 0.289118L5.46549 1.07723ZM6.52691 2.52392L6.76524 2.05384L6.29942 1.58277L5.8267 1.81583C5.71969 1.86875 5.60256 1.89806 5.48324 1.90178C5.36392 1.9055 5.24519 1.88354 5.1351 1.83738C5.025 1.79123 4.92611 1.72196 4.84511 1.63426C4.76411 1.54657 4.7029 1.44249 4.66562 1.32908L4.51819 0.824436L3.87002 0.820809L3.69926 1.32367C3.66189 1.43862 3.59995 1.54407 3.51775 1.63269C3.43555 1.72131 3.33506 1.79099 3.22324 1.8369C3.11143 1.8828 2.99096 1.90383 2.8702 1.89853C2.74944 1.89323 2.63129 1.86172 2.52392 1.80619L2.05384 1.56785L1.59166 2.02489L1.82472 2.49761C1.87905 2.60558 1.90923 2.72409 1.91318 2.8449C1.91713 2.96571 1.89476 3.08593 1.8476 3.19723C1.80045 3.30852 1.72965 3.40823 1.64011 3.48943C1.55057 3.57063 1.44444 3.63138 1.32908 3.66747L0.833225 3.82379L0.829597 4.47197L1.32367 4.63383C1.43862 4.67121 1.54407 4.73314 1.63269 4.81534C1.72131 4.89754 1.79099 4.99803 1.8369 5.10985C1.8828 5.22167 1.90383 5.34213 1.89853 5.46289C1.89323 5.58365 1.86172 5.70181 1.80619 5.80917L1.56785 6.27925L2.02489 6.74143L2.4976 6.50837C2.60558 6.45405 2.72409 6.42386 2.8449 6.41991C2.9657 6.41596 3.08593 6.43833 3.19723 6.48549C3.30852 6.53264 3.40823 6.60344 3.48943 6.69298C3.57063 6.78252 3.63138 6.88865 3.66747 7.00401L3.81491 7.50866L4.46308 7.51228L4.63383 7.00942C4.67121 6.89447 4.73314 6.78902 4.81534 6.7004C4.89754 6.61178 4.99803 6.5421 5.10985 6.49619C5.22167 6.45029 5.34213 6.42926 5.46289 6.43456C5.58365 6.43987 5.70181 6.47138 5.80917 6.52691L6.27925 6.76524L6.75032 6.29942L6.51726 5.8267C6.46434 5.71969 6.43503 5.60256 6.43131 5.48324C6.42759 5.36392 6.44955 5.24519 6.49571 5.1351C6.54186 5.025 6.61113 4.92611 6.69883 4.84511C6.78653 4.76411 6.8906 4.7029 7.00401 4.66562L7.50866 4.51819L7.51228 3.87002L7.00942 3.69926C6.89447 3.66189 6.78902 3.59995 6.7004 3.51775C6.61178 3.43555 6.5421 3.33506 6.49619 3.22324C6.45029 3.11143 6.42926 2.99096 6.43456 2.8702C6.43987 2.74944 6.47138 2.63129 6.52691 2.52392ZM2.53375 3.83225C2.59987 3.50932 2.76026 3.21324 2.99465 2.98146C3.30895 2.67065 3.73385 2.49743 4.17587 2.49991C4.6179 2.50238 5.04083 2.68034 5.35163 2.99465C5.58341 3.22904 5.74048 3.52689 5.80298 3.85055C5.86548 4.17421 5.8306 4.50913 5.70275 4.81296C5.5749 5.11679 5.35983 5.37589 5.08473 5.55749C4.80962 5.73909 4.48685 5.83503 4.15722 5.83319C3.82759 5.83134 3.50591 5.73179 3.23285 5.54712C2.9598 5.36246 2.74764 5.10097 2.6232 4.79572C2.49876 4.49048 2.46763 4.15519 2.53375 3.83225ZM4.32454 4.98476C4.48637 4.95352 4.6353 4.87498 4.75249 4.75909C4.90965 4.60369 4.99863 4.39222 4.99987 4.17121C5.0011 3.9502 4.91449 3.73775 4.75909 3.5806C4.6432 3.4634 4.49516 3.38321 4.33369 3.35015C4.17222 3.31709 4.00458 3.33265 3.85196 3.39487C3.69933 3.45709 3.56859 3.56317 3.47626 3.6997C3.38392 3.83623 3.33415 3.99707 3.33323 4.16188C3.3323 4.3267 3.38027 4.48808 3.47107 4.62564C3.56187 4.76319 3.69142 4.87072 3.84334 4.93465C3.99526 4.99857 4.16272 5.01601 4.32454 4.98476ZM57.4684 9.97727C58.8801 10.2134 64.2328 11.2171 66.7033 11.8075C69.8796 12.5751 73.2912 16.0584 73.1736 19.8961V20.0142V20.1322C73.0456 20.7743 72.9486 21.3233 72.8601 21.8242L72.86 21.8245C72.8265 22.0144 72.7941 22.1973 72.7618 22.3758L72.7409 22.4858C72.224 25.199 71.8845 26.981 67.8797 26.981C65.5857 26.981 63.6446 27.04 62.5858 27.099C62.0564 29.992 59.5271 32.1765 56.5272 32.1765C53.5862 32.1765 51.0569 29.992 50.5275 27.1581H27.705V26.9219C27.2344 29.8739 24.7051 32.1765 21.6465 32.1765C18.7054 32.1765 16.1761 29.992 15.6467 27.1581H12.588C7.17652 27.1581 7.17652 21.0769 7.17652 17.0621C7.17652 16.2063 7.23883 15.3947 7.33781 14.6455C7.94024 15.2884 8.64763 15.8318 9.43263 16.2482C9.41907 16.5136 9.41172 16.7852 9.41172 17.0621C9.41172 21.5492 9.647 24.9736 12.6469 24.9736H15.7056C16.2349 22.0806 18.7642 19.8961 21.7641 19.8961C24.8228 19.8961 27.3521 22.1987 27.8227 25.1507V24.9736H50.5863C51.1157 22.0806 53.645 19.8961 56.6449 19.8961C59.7036 19.8961 62.1741 22.0806 62.7034 24.9736C63.821 24.9145 65.7621 24.8555 67.9973 24.8555C70.2009 24.8555 70.2321 24.6833 70.6834 22.1893L70.7031 22.0806C70.7285 21.9403 70.7539 21.7972 70.7799 21.6507L70.7803 21.649L70.7803 21.6485L70.7805 21.6472C70.8748 21.1169 70.9768 20.5426 71.1148 19.8961C71.056 17.1802 68.4679 14.5234 66.1739 13.933C63.4681 13.2835 56.8214 12.1027 56.7625 12.1027L56.4096 12.0437H29.9402C25.0581 12.0437 23.117 8.73742 22.8229 6.9662L24.9993 6.55291C25.0581 6.84812 25.7639 9.80015 29.9402 9.80015H37.4105V5.90347H39.6457V9.80015H54.0568C50.8804 7.02524 44.7043 2.36103 39.4692 2.36103C38.7516 2.36103 37.6766 2.40089 36.4635 2.44586C35.5884 2.47831 34.6414 2.51341 33.7047 2.53815C31.5872 2.65624 29.5285 2.71528 28.4697 2.71528C25.2349 2.71528 22.5759 4.32562 20.5659 6.10571C20.2768 5.41068 19.8924 4.76521 19.4291 4.18558C21.705 2.2537 24.7223 0.530774 28.4697 0.530774C29.0142 0.530774 29.8553 0.495757 30.8504 0.454327C31.6827 0.419678 32.6227 0.380542 33.5871 0.353653C34.4985 0.329579 35.4294 0.295691 36.3002 0.263993C37.565 0.217951 38.7028 0.176531 39.4692 0.176531C47.1747 0.176531 55.8802 8.38317 57.4684 9.97727ZM17.8231 26.0953C17.8231 28.2799 19.5877 30.0511 21.7641 30.0511C23.9405 30.0511 25.7051 28.2799 25.7051 26.0953C25.7051 23.9108 23.9405 22.1396 21.7641 22.1396C19.5877 22.1396 17.8231 23.9108 17.8231 26.0953ZM52.7039 26.0953C52.7039 28.2799 54.4685 30.0511 56.6449 30.0511C58.8213 30.0511 60.5859 28.2799 60.5859 26.0953C60.5859 23.9108 58.8213 22.1396 56.6449 22.1396C54.4685 22.1396 52.7039 23.9108 52.7039 26.0953ZM18.6132 7.74736L17.5107 7.37986L18.0299 6.34153C18.0825 6.23285 18.1001 6.11051 18.0802 5.9914C18.0604 5.87229 18.0041 5.76227 17.919 5.67653L16.6765 4.43403C16.5903 4.34775 16.4793 4.29065 16.3589 4.27077C16.2386 4.25089 16.1151 4.26923 16.0057 4.3232L14.9674 4.84236L14.5999 3.73986C14.561 3.62494 14.4874 3.52498 14.3891 3.45388C14.2908 3.38279 14.1728 3.3441 14.0515 3.3432H12.3015C12.1792 3.34288 12.0599 3.38101 11.9605 3.45219C11.861 3.52337 11.7865 3.624 11.7474 3.73986L11.3799 4.84236L10.3415 4.3232C10.2328 4.27057 10.1105 4.25297 9.99139 4.27282C9.87228 4.29267 9.76226 4.349 9.67652 4.43403L8.43402 5.67653C8.34774 5.76273 8.29064 5.8738 8.27076 5.99413C8.25088 6.11446 8.26922 6.238 8.32319 6.34736L8.84235 7.3857L7.73986 7.7532C7.62493 7.79201 7.52497 7.86568 7.45387 7.96396C7.38278 8.06224 7.34409 8.18023 7.34319 8.30153V10.0515C7.34287 10.1738 7.381 10.2931 7.45218 10.3926C7.52336 10.492 7.62399 10.5666 7.73986 10.6057L8.84235 10.9732L8.32319 12.0115C8.27056 12.1202 8.25296 12.2426 8.27281 12.3617C8.29266 12.4808 8.34899 12.5908 8.43402 12.6765L9.67652 13.919C9.76272 14.0053 9.87379 14.0624 9.99412 14.0823C10.1145 14.1022 10.238 14.0838 10.3474 14.0299L11.3857 13.5107L11.7532 14.6132C11.7923 14.7291 11.8669 14.8297 11.9663 14.9009C12.0658 14.9721 12.1851 15.0102 12.3074 15.0099H14.0574C14.1796 15.0102 14.2989 14.9721 14.3984 14.9009C14.4978 14.8297 14.5724 14.7291 14.6115 14.6132L14.979 13.5107L16.0174 14.0299C16.1253 14.0812 16.2465 14.098 16.3644 14.0782C16.4823 14.0584 16.5912 14.0028 16.6765 13.919L17.919 12.6765C18.0053 12.5903 18.0624 12.4793 18.0823 12.3589C18.1022 12.2386 18.0838 12.1151 18.0299 12.0057L17.5107 10.9674L18.6132 10.5999C18.7281 10.5611 18.8281 10.4874 18.8992 10.3891C18.9703 10.2908 19.009 10.1728 19.0099 10.0515V8.30153C19.0102 8.17924 18.972 8.05994 18.9009 7.9605C18.8297 7.86105 18.729 7.7865 18.6132 7.74736ZM17.8432 9.63153L17.1432 9.86486C16.9822 9.91708 16.8345 10.0037 16.7104 10.1187C16.5862 10.2337 16.4886 10.3743 16.4242 10.5308C16.3598 10.6873 16.3303 10.8559 16.3376 11.025C16.3449 11.194 16.3889 11.3595 16.4665 11.5099L16.799 12.1749L16.1574 12.8165L15.5099 12.4665C15.3603 12.392 15.1964 12.3505 15.0294 12.3448C14.8623 12.3391 14.696 12.3693 14.5417 12.4335C14.3874 12.4977 14.2486 12.5942 14.1349 12.7167C14.0211 12.8391 13.935 12.9846 13.8824 13.1432L13.649 13.8432H12.7215L12.4882 13.1432C12.436 12.9822 12.3494 12.8345 12.2344 12.7104C12.1194 12.5862 11.9788 12.4886 11.8223 12.4242C11.6658 12.3598 11.4971 12.3303 11.3281 12.3376C11.159 12.3449 10.9936 12.3889 10.8432 12.4665L10.1782 12.799L9.53652 12.1574L9.88652 11.5099C9.96416 11.3595 10.0082 11.194 10.0155 11.025C10.0228 10.8559 9.99321 10.6873 9.92884 10.5308C9.86446 10.3743 9.76681 10.2337 9.64266 10.1187C9.5185 10.0037 9.37082 9.91708 9.20986 9.86486L8.50986 9.63153V8.72153L9.20986 8.4882C9.37082 8.43598 9.5185 8.34938 9.64266 8.23439C9.76681 8.1194 9.86446 7.97878 9.92884 7.82228C9.99321 7.66578 10.0228 7.49714 10.0155 7.32808C10.0082 7.15901 9.96416 6.99356 9.88652 6.8432L9.55402 6.1957L10.1957 5.55403L10.8432 5.88653C10.9936 5.96417 11.159 6.00817 11.3281 6.01547C11.4971 6.02278 11.6658 5.99322 11.8223 5.92884C11.9788 5.86447 12.1194 5.76682 12.2344 5.64267C12.3494 5.51851 12.436 5.37083 12.4882 5.20986L12.7215 4.50986H13.6315L13.8649 5.20986C13.9171 5.37083 14.0037 5.51851 14.1187 5.64267C14.2337 5.76682 14.3743 5.86447 14.5308 5.92884C14.6873 5.99322 14.8559 6.02278 15.025 6.01547C15.194 6.00817 15.3595 5.96417 15.5099 5.88653L16.1749 5.55403L16.8165 6.1957L16.4665 6.8432C16.392 6.99279 16.3505 7.15665 16.3448 7.32368C16.3391 7.49072 16.3693 7.65702 16.4335 7.81135C16.4977 7.96567 16.5942 8.1044 16.7167 8.21816C16.8391 8.33192 16.9846 8.41804 17.1432 8.4707L17.8432 8.70403V9.63153ZM13.1765 6.8432C12.715 6.8432 12.2639 6.98004 11.8802 7.23643C11.4965 7.49283 11.1974 7.85724 11.0208 8.2836C10.8442 8.70996 10.798 9.17912 10.888 9.63174C10.9781 10.0844 11.2003 10.5001 11.5266 10.8264C11.8529 11.1528 12.2687 11.375 12.7213 11.465C13.1739 11.5551 13.6431 11.5089 14.0694 11.3322C14.4958 11.1556 14.8602 10.8566 15.1166 10.4729C15.373 10.0891 15.5099 9.63802 15.5099 9.17653C15.5099 8.55769 15.264 7.9642 14.8264 7.52661C14.3889 7.08903 13.7954 6.8432 13.1765 6.8432ZM13.1765 10.3432C12.9458 10.3432 12.7202 10.2748 12.5284 10.1466C12.3365 10.0184 12.187 9.83617 12.0987 9.62299C12.0104 9.40981 11.9873 9.17524 12.0323 8.94893C12.0773 8.72261 12.1884 8.51473 12.3516 8.35157C12.5147 8.18841 12.7226 8.0773 12.9489 8.03228C13.1752 7.98726 13.4098 8.01037 13.623 8.09867C13.8362 8.18697 14.0184 8.33651 14.1466 8.52837C14.2748 8.72022 14.3432 8.94579 14.3432 9.17653C14.3432 9.48595 14.2203 9.78269 14.0015 10.0015C13.7827 10.2203 13.4859 10.3432 13.1765 10.3432Z" fill="#2D60E2"/>
</svg>
