<svg width="45" height="26" viewBox="0 0 45 26" fill="none" xmlns="http://www.w3.org/2000/svg">
<path d="M34.9635 8.05402H26.8747L27.1319 7.73154L17.7406 0.653177C17.6079 0.552403 17.4461 0.5 17.2802 0.5H13.1155C12.8293 0.5 12.5679 0.657207 12.4393 0.907126C12.3108 1.15705 12.3439 1.45534 12.5182 1.67704L16.5501 6.76008L17.7448 5.86521L14.6461 1.96324H17.0188L25.1035 8.05402H13.0574L5.49957 1.56014C5.36269 1.44324 5.18432 1.37472 5.0018 1.37472H1.5091C1.24362 1.37472 0.998885 1.51177 0.861998 1.73347C0.725111 1.95518 0.720963 2.22928 0.845406 2.45501L3.96063 8.05402H1.50495C1.09014 8.05402 0.75 8.38052 0.75 8.78765V12.1817C0.75 12.484 0.940813 12.7541 1.23118 12.8629C1.61695 13.0081 10.7428 16.4142 13.5552 16.4142H18.7859L12.5099 24.323C12.3356 24.5447 12.3025 24.843 12.431 25.0929C12.5596 25.3428 12.821 25.5 13.1072 25.5H17.2719C17.4378 25.5 17.5996 25.4476 17.7323 25.3468L29.5834 16.4142H39.9786C41.8037 16.4142 44.5 15.3904 44.5 13.1895C44.5042 10.791 39.4227 8.05402 34.9635 8.05402ZM39.9869 14.951H29.3346C29.1686 14.951 29.0069 15.0034 28.8741 15.1042L17.023 24.0368H14.6503L20.9305 16.124C21.1462 15.8539 21.1338 15.479 20.9139 15.217C20.7604 15.0356 20.5281 14.9389 20.3 14.951H13.5593C11.5765 14.951 5.13869 12.734 2.25991 11.6738V9.51725H5.2258C5.49128 9.51725 5.73601 9.3802 5.8729 9.1585C6.00979 8.93679 6.01394 8.66269 5.88949 8.43696L2.77427 2.83796H4.71558L12.2734 9.33183C12.4103 9.44873 12.5887 9.51725 12.7712 9.51725H34.9635C39.1116 9.51725 42.9984 12.0447 42.9984 13.1895C42.9984 14.2818 41.2437 14.951 39.9869 14.951Z" fill="#2D60E2"/>
</svg>
